<mxfile host="app.diagrams.net" agent="Mozilla/5.0 (Windows NT 10.0; Win64; x64) AppleWebKit/537.36 (KHTML, like Gecko) Chrome/136.0.0.0 Safari/537.36 Edg/136.0.0.0" version="27.0.6">
  <diagram id="R2lEEEUBdFMjLlhIrx00" name="Conceptual ERD">
    <mxGraphModel dx="2046" dy="1651" grid="1" gridSize="10" guides="1" tooltips="1" connect="1" arrows="1" fold="1" page="1" pageScale="1" pageWidth="850" pageHeight="1100" math="0" shadow="0" extFonts="Permanent Marker^https://fonts.googleapis.com/css?family=Permanent+Marker">
      <root>
        <mxCell id="0" />
        <mxCell id="1" parent="0" />
        <mxCell id="WPEDZgAnL7U1dJGIB6oS-31" value="" style="rhombus;whiteSpace=wrap;html=1;" vertex="1" parent="1">
          <mxGeometry x="-140" y="250" width="80" height="80" as="geometry" />
        </mxCell>
        <mxCell id="WPEDZgAnL7U1dJGIB6oS-36" value="" style="rhombus;whiteSpace=wrap;html=1;" vertex="1" parent="1">
          <mxGeometry x="-30" y="300" width="80" height="80" as="geometry" />
        </mxCell>
        <mxCell id="WPEDZgAnL7U1dJGIB6oS-32" value="" style="rhombus;whiteSpace=wrap;html=1;" vertex="1" parent="1">
          <mxGeometry x="360" y="640" width="80" height="80" as="geometry" />
        </mxCell>
        <mxCell id="WPEDZgAnL7U1dJGIB6oS-30" value="" style="rhombus;whiteSpace=wrap;html=1;" vertex="1" parent="1">
          <mxGeometry x="730" y="70" width="80" height="80" as="geometry" />
        </mxCell>
        <mxCell id="WPEDZgAnL7U1dJGIB6oS-27" value="" style="rhombus;whiteSpace=wrap;html=1;" vertex="1" parent="1">
          <mxGeometry x="-20" y="40" width="80" height="80" as="geometry" />
        </mxCell>
        <mxCell id="WPEDZgAnL7U1dJGIB6oS-1" value="Parent" style="shape=rectangle;whiteSpace=wrap;html=1;rounded=0;fillColor=#dae8fc;strokeColor=#6c8ebf;fontSize=12;" vertex="1" parent="1">
          <mxGeometry x="100" y="50" width="120" height="60" as="geometry" />
        </mxCell>
        <mxCell id="WPEDZgAnL7U1dJGIB6oS-2" value="Student" style="shape=rectangle;whiteSpace=wrap;html=1;rounded=0;fillColor=#dae8fc;strokeColor=#6c8ebf;fontSize=12;" vertex="1" parent="1">
          <mxGeometry x="-50" y="150" width="120" height="60" as="geometry" />
        </mxCell>
        <mxCell id="WPEDZgAnL7U1dJGIB6oS-3" value="MedicalRecord" style="shape=rectangle;whiteSpace=wrap;html=1;rounded=0;fillColor=#dae8fc;strokeColor=#6c8ebf;fontSize=12;" vertex="1" parent="1">
          <mxGeometry x="80" y="270" width="120" height="60" as="geometry" />
        </mxCell>
        <mxCell id="WPEDZgAnL7U1dJGIB6oS-4" value="ChronicDisease" style="shape=rectangle;whiteSpace=wrap;html=1;rounded=0;fillColor=#dae8fc;strokeColor=#6c8ebf;fontSize=12;" vertex="1" parent="1">
          <mxGeometry x="-380" y="250" width="120" height="60" as="geometry" />
        </mxCell>
        <mxCell id="WPEDZgAnL7U1dJGIB6oS-5" value="Allergy" style="shape=rectangle;whiteSpace=wrap;html=1;rounded=0;fillColor=#dae8fc;strokeColor=#6c8ebf;fontSize=12;" vertex="1" parent="1">
          <mxGeometry x="-230" y="550" width="120" height="60" as="geometry" />
        </mxCell>
        <mxCell id="WPEDZgAnL7U1dJGIB6oS-6" value="Vaccination" style="shape=rectangle;whiteSpace=wrap;html=1;rounded=0;fillColor=#dae8fc;strokeColor=#6c8ebf;fontSize=12;" vertex="1" parent="1">
          <mxGeometry x="-50" y="530" width="120" height="60" as="geometry" />
        </mxCell>
        <mxCell id="WPEDZgAnL7U1dJGIB6oS-7" value="MedicalEvent" style="shape=rectangle;whiteSpace=wrap;html=1;rounded=0;fillColor=#dae8fc;strokeColor=#6c8ebf;fontSize=12;" vertex="1" parent="1">
          <mxGeometry x="100" y="650" width="120" height="60" as="geometry" />
        </mxCell>
        <mxCell id="WPEDZgAnL7U1dJGIB6oS-8" value="User" style="shape=rectangle;whiteSpace=wrap;html=1;rounded=0;fillColor=#dae8fc;strokeColor=#6c8ebf;fontSize=12;" vertex="1" parent="1">
          <mxGeometry x="230" y="-80" width="120" height="60" as="geometry" />
        </mxCell>
        <mxCell id="WPEDZgAnL7U1dJGIB6oS-9" value="ConsentForm" style="shape=rectangle;whiteSpace=wrap;html=1;rounded=0;fillColor=#dae8fc;strokeColor=#6c8ebf;fontSize=12;" vertex="1" parent="1">
          <mxGeometry x="760" y="200" width="120" height="60" as="geometry" />
        </mxCell>
        <mxCell id="WPEDZgAnL7U1dJGIB6oS-10" value="Report" style="shape=rectangle;whiteSpace=wrap;html=1;rounded=0;fillColor=#dae8fc;strokeColor=#6c8ebf;fontSize=12;" vertex="1" parent="1">
          <mxGeometry x="230" y="290" width="120" height="60" as="geometry" />
        </mxCell>
        <mxCell id="WPEDZgAnL7U1dJGIB6oS-11" value="SchoolCheckup" style="shape=rectangle;whiteSpace=wrap;html=1;rounded=0;fillColor=#dae8fc;strokeColor=#6c8ebf;fontSize=12;" vertex="1" parent="1">
          <mxGeometry x="550" y="300" width="120" height="60" as="geometry" />
        </mxCell>
        <mxCell id="WPEDZgAnL7U1dJGIB6oS-12" value="Medicine" style="shape=rectangle;whiteSpace=wrap;html=1;rounded=0;fillColor=#dae8fc;strokeColor=#6c8ebf;fontSize=12;" vertex="1" parent="1">
          <mxGeometry x="340" y="450" width="120" height="60" as="geometry" />
        </mxCell>
        <mxCell id="WPEDZgAnL7U1dJGIB6oS-13" value="Supplies" style="shape=rectangle;whiteSpace=wrap;html=1;rounded=0;fillColor=#dae8fc;strokeColor=#6c8ebf;fontSize=12;" vertex="1" parent="1">
          <mxGeometry x="580" y="650" width="120" height="60" as="geometry" />
        </mxCell>
        <mxCell id="WPEDZgAnL7U1dJGIB6oS-14" value="submits" style="edgeStyle=orthogonalEdgeStyle;rounded=0;orthogonalLoop=1;jettySize=auto;html=1;endArrow=classic;endFill=1;strokeColor=#5A5A5A;fontSize=10;" edge="1" parent="1" source="WPEDZgAnL7U1dJGIB6oS-1" target="WPEDZgAnL7U1dJGIB6oS-2">
          <mxGeometry relative="1" as="geometry" />
        </mxCell>
        <mxCell id="WPEDZgAnL7U1dJGIB6oS-15" value="has" style="edgeStyle=orthogonalEdgeStyle;rounded=0;orthogonalLoop=1;jettySize=auto;html=1;endArrow=classic;endFill=1;strokeColor=#5A5A5A;fontSize=10;" edge="1" parent="1" source="WPEDZgAnL7U1dJGIB6oS-2" target="WPEDZgAnL7U1dJGIB6oS-3">
          <mxGeometry relative="1" as="geometry" />
        </mxCell>
        <mxCell id="WPEDZgAnL7U1dJGIB6oS-16" value="includes" style="edgeStyle=orthogonalEdgeStyle;rounded=0;orthogonalLoop=1;jettySize=auto;html=1;endArrow=classic;endFill=1;strokeColor=#5A5A5A;fontSize=10;" edge="1" parent="1" source="WPEDZgAnL7U1dJGIB6oS-31" target="WPEDZgAnL7U1dJGIB6oS-4">
          <mxGeometry relative="1" as="geometry" />
        </mxCell>
        <mxCell id="WPEDZgAnL7U1dJGIB6oS-17" value="includes" style="edgeStyle=orthogonalEdgeStyle;rounded=0;orthogonalLoop=1;jettySize=auto;html=1;endArrow=classic;endFill=1;strokeColor=#5A5A5A;fontSize=10;" edge="1" parent="1" source="WPEDZgAnL7U1dJGIB6oS-3" target="WPEDZgAnL7U1dJGIB6oS-5">
          <mxGeometry x="-0.2799" y="-10" relative="1" as="geometry">
            <Array as="points">
              <mxPoint x="-170" y="290" />
            </Array>
            <mxPoint as="offset" />
          </mxGeometry>
        </mxCell>
        <mxCell id="WPEDZgAnL7U1dJGIB6oS-18" value="undergoes" style="edgeStyle=orthogonalEdgeStyle;rounded=0;orthogonalLoop=1;jettySize=auto;html=1;endArrow=classic;endFill=1;strokeColor=#5A5A5A;fontSize=10;" edge="1" parent="1" source="WPEDZgAnL7U1dJGIB6oS-36" target="WPEDZgAnL7U1dJGIB6oS-6">
          <mxGeometry x="-1" y="-40" relative="1" as="geometry">
            <mxPoint x="10" y="400" as="sourcePoint" />
            <mxPoint x="40" y="-40" as="offset" />
          </mxGeometry>
        </mxCell>
        <mxCell id="WPEDZgAnL7U1dJGIB6oS-19" value="experiences" style="edgeStyle=orthogonalEdgeStyle;rounded=0;orthogonalLoop=1;jettySize=auto;html=1;endArrow=classic;endFill=1;strokeColor=#5A5A5A;fontSize=10;" edge="1" parent="1" source="WPEDZgAnL7U1dJGIB6oS-2" target="WPEDZgAnL7U1dJGIB6oS-7">
          <mxGeometry relative="1" as="geometry" />
        </mxCell>
        <mxCell id="WPEDZgAnL7U1dJGIB6oS-20" value="uses" style="edgeStyle=orthogonalEdgeStyle;rounded=0;orthogonalLoop=1;jettySize=auto;html=1;endArrow=classic;endFill=1;strokeColor=#5A5A5A;fontSize=10;" edge="1" parent="1" source="WPEDZgAnL7U1dJGIB6oS-32" target="WPEDZgAnL7U1dJGIB6oS-12">
          <mxGeometry relative="1" as="geometry" />
        </mxCell>
        <mxCell id="WPEDZgAnL7U1dJGIB6oS-21" value="uses" style="edgeStyle=orthogonalEdgeStyle;rounded=0;orthogonalLoop=1;jettySize=auto;html=1;endArrow=classic;endFill=1;strokeColor=#5A5A5A;fontSize=10;" edge="1" parent="1" source="WPEDZgAnL7U1dJGIB6oS-7" target="WPEDZgAnL7U1dJGIB6oS-13">
          <mxGeometry relative="1" as="geometry" />
        </mxCell>
        <mxCell id="WPEDZgAnL7U1dJGIB6oS-22" value="undergoes" style="edgeStyle=orthogonalEdgeStyle;rounded=0;orthogonalLoop=1;jettySize=auto;html=1;endArrow=classic;endFill=1;strokeColor=#5A5A5A;fontSize=10;" edge="1" parent="1" source="WPEDZgAnL7U1dJGIB6oS-2" target="WPEDZgAnL7U1dJGIB6oS-11">
          <mxGeometry relative="1" as="geometry" />
        </mxCell>
        <mxCell id="WPEDZgAnL7U1dJGIB6oS-23" value="for" style="edgeStyle=orthogonalEdgeStyle;rounded=0;orthogonalLoop=1;jettySize=auto;html=1;endArrow=classic;endFill=1;strokeColor=#5A5A5A;fontSize=10;" edge="1" parent="1" source="WPEDZgAnL7U1dJGIB6oS-9" target="WPEDZgAnL7U1dJGIB6oS-2">
          <mxGeometry relative="1" as="geometry" />
        </mxCell>
        <mxCell id="WPEDZgAnL7U1dJGIB6oS-24" value="submitted_by" style="edgeStyle=orthogonalEdgeStyle;rounded=0;orthogonalLoop=1;jettySize=auto;html=1;endArrow=classic;endFill=1;strokeColor=#5A5A5A;fontSize=10;" edge="1" parent="1" source="WPEDZgAnL7U1dJGIB6oS-9" target="WPEDZgAnL7U1dJGIB6oS-1">
          <mxGeometry relative="1" as="geometry" />
        </mxCell>
        <mxCell id="WPEDZgAnL7U1dJGIB6oS-25" value="creates" style="edgeStyle=orthogonalEdgeStyle;rounded=0;orthogonalLoop=1;jettySize=auto;html=1;endArrow=classic;endFill=1;strokeColor=#5A5A5A;fontSize=10;" edge="1" parent="1" target="WPEDZgAnL7U1dJGIB6oS-9">
          <mxGeometry relative="1" as="geometry">
            <mxPoint x="730" y="60" as="sourcePoint" />
            <Array as="points">
              <mxPoint x="770" y="60" />
            </Array>
          </mxGeometry>
        </mxCell>
        <mxCell id="WPEDZgAnL7U1dJGIB6oS-26" value="generates" style="edgeStyle=orthogonalEdgeStyle;rounded=0;orthogonalLoop=1;jettySize=auto;html=1;endArrow=classic;endFill=1;strokeColor=#5A5A5A;fontSize=10;" edge="1" parent="1" source="WPEDZgAnL7U1dJGIB6oS-8" target="WPEDZgAnL7U1dJGIB6oS-10">
          <mxGeometry relative="1" as="geometry" />
        </mxCell>
        <mxCell id="WPEDZgAnL7U1dJGIB6oS-29" value="" style="edgeStyle=orthogonalEdgeStyle;rounded=0;orthogonalLoop=1;jettySize=auto;html=1;endArrow=classic;endFill=1;strokeColor=#5A5A5A;fontSize=10;" edge="1" parent="1" source="WPEDZgAnL7U1dJGIB6oS-8">
          <mxGeometry relative="1" as="geometry">
            <mxPoint x="470" y="80" as="sourcePoint" />
            <mxPoint x="730.0588235294122" y="60.05882352941171" as="targetPoint" />
          </mxGeometry>
        </mxCell>
        <mxCell id="WPEDZgAnL7U1dJGIB6oS-33" value="" style="edgeStyle=orthogonalEdgeStyle;rounded=0;orthogonalLoop=1;jettySize=auto;html=1;endArrow=classic;endFill=1;strokeColor=#5A5A5A;fontSize=10;" edge="1" parent="1" source="WPEDZgAnL7U1dJGIB6oS-7" target="WPEDZgAnL7U1dJGIB6oS-32">
          <mxGeometry relative="1" as="geometry">
            <mxPoint x="220" y="680" as="sourcePoint" />
            <mxPoint x="410" y="510" as="targetPoint" />
          </mxGeometry>
        </mxCell>
        <mxCell id="WPEDZgAnL7U1dJGIB6oS-35" value="" style="edgeStyle=orthogonalEdgeStyle;rounded=0;orthogonalLoop=1;jettySize=auto;html=1;endArrow=classic;endFill=1;strokeColor=#5A5A5A;fontSize=10;" edge="1" parent="1" source="WPEDZgAnL7U1dJGIB6oS-36">
          <mxGeometry relative="1" as="geometry">
            <mxPoint x="10" y="210" as="sourcePoint" />
            <mxPoint x="10" y="400" as="targetPoint" />
          </mxGeometry>
        </mxCell>
        <mxCell id="WPEDZgAnL7U1dJGIB6oS-38" value="" style="edgeStyle=orthogonalEdgeStyle;rounded=0;orthogonalLoop=1;jettySize=auto;html=1;endArrow=classic;endFill=1;strokeColor=#5A5A5A;fontSize=10;" edge="1" parent="1" target="WPEDZgAnL7U1dJGIB6oS-36">
          <mxGeometry relative="1" as="geometry">
            <mxPoint x="10" y="400" as="sourcePoint" />
            <mxPoint x="10" y="530" as="targetPoint" />
          </mxGeometry>
        </mxCell>
        <mxCell id="WPEDZgAnL7U1dJGIB6oS-39" value="" style="edgeStyle=orthogonalEdgeStyle;rounded=0;orthogonalLoop=1;jettySize=auto;html=1;endArrow=classic;endFill=1;strokeColor=#5A5A5A;fontSize=10;" edge="1" parent="1" source="WPEDZgAnL7U1dJGIB6oS-2" target="WPEDZgAnL7U1dJGIB6oS-36">
          <mxGeometry relative="1" as="geometry">
            <mxPoint x="10" y="210" as="sourcePoint" />
            <mxPoint x="10" y="400" as="targetPoint" />
          </mxGeometry>
        </mxCell>
        <mxCell id="WPEDZgAnL7U1dJGIB6oS-40" value="" style="edgeStyle=orthogonalEdgeStyle;rounded=0;orthogonalLoop=1;jettySize=auto;html=1;endArrow=classic;endFill=1;strokeColor=#5A5A5A;fontSize=10;" edge="1" parent="1" source="WPEDZgAnL7U1dJGIB6oS-3" target="WPEDZgAnL7U1dJGIB6oS-31">
          <mxGeometry relative="1" as="geometry">
            <mxPoint x="80" y="300" as="sourcePoint" />
            <mxPoint x="-260" y="280" as="targetPoint" />
          </mxGeometry>
        </mxCell>
      </root>
    </mxGraphModel>
  </diagram>
</mxfile>
